<svg xmlns="http://www.w3.org/2000/svg" fill="#d0e9ff99" stroke="#d0e9ff99" stroke-linecap="round" stroke-linejoin="round" stroke-width="0" viewBox="0 0 48 48" part="icon blz-icon"><path stroke="none" d="M24.48 13.493c-1.575 0-4.01-1.796-6.576-1.732-3.384.044-6.488 1.97-8.234 5.022-3.514 6.125-.906 15.172 2.522 20.15 1.681 2.424 3.664 5.152 6.294 5.065 2.523-.108 3.471-1.645 6.532-1.645 3.04 0 3.902 1.645 6.575 1.58 2.716-.043 4.44-2.467 6.1-4.913 1.92-2.814 2.717-5.541 2.76-5.693-.065-.021-5.282-2.034-5.346-8.094-.043-5.065 4.117-7.49 4.311-7.597-2.371-3.485-6.014-3.875-7.286-3.961-3.32-.26-6.1 1.818-7.653 1.818m5.604-5.108c1.401-1.688 2.328-4.047 2.07-6.385-2.005.087-4.42 1.342-5.864 3.03-1.293 1.494-2.414 3.896-2.113 6.19 2.22.173 4.506-1.147 5.907-2.835"></path></svg>