<svg xmlns="http://www.w3.org/2000/svg" fill="#d0e9ff99" stroke="#d0e9ff99" stroke-linecap="round" stroke-linejoin="round" stroke-width="0" viewBox="0 0 48 48" part="icon blz-icon"><path stroke="none" d="M11.605 16.802a3.389 3.389 0 1 0 .998-2.398 3.38 3.38 0 0 0-.99 2.39zm8.859 22.293h-5.235a6.34 6.34 0 0 1-6.332-6.324V15.23a6.324 6.324 0 0 1 6.332-6.324h5.235zM23.096 6h-7.867A9.23 9.23 0 0 0 6 15.23v17.54A9.23 9.23 0 0 0 15.229 42h7.867a.265.265 0 0 0 .265-.265V6.265A.265.265 0 0 0 23.103 6zm10.991 16.158a3.638 3.638 0 1 1-3.563 3.563 3.63 3.63 0 0 1 3.563-3.563M27.227 42h5.544A9.23 9.23 0 0 0 42 32.771V15.23A9.23 9.23 0 0 0 32.77 6h-5.59a.227.227 0 0 0-.235.227v35.508a.265.265 0 0 0 .257.265z"></path></svg>